<svg width="44" height="52" viewBox="0 0 44 52" fill="none" xmlns="http://www.w3.org/2000/svg">
<g filter="url(#filter0_dd)">
<rect x="4" y="8" width="36" height="36" rx="18" fill="#3734D3"/>
</g>
<path d="M30.8 34.25H13.2C13.0055 34.25 12.819 34.1534 12.6815 33.9815C12.5439 33.8096 12.4667 33.5765 12.4667 33.3333C12.4667 33.0902 12.5439 32.8571 12.6815 32.6852C12.819 32.5132 13.0055 32.4167 13.2 32.4167H30.8C30.9945 32.4167 31.181 32.5132 31.3186 32.6852C31.4561 32.8571 31.5333 33.0902 31.5333 33.3333C31.5333 33.5765 31.4561 33.8096 31.3186 33.9815C31.181 34.1534 30.9945 34.25 30.8 34.25Z" fill="#FCFCFC"/>
<path d="M29.3334 37H14.6667C14.4722 37 14.2857 36.9034 14.1481 36.7315C14.0106 36.5596 13.9333 36.3265 13.9333 36.0833C13.9333 35.8402 14.0106 35.6071 14.1481 35.4352C14.2857 35.2632 14.4722 35.1667 14.6667 35.1667H29.3334C29.5278 35.1667 29.7144 35.2632 29.8519 35.4352C29.9894 35.6071 30.0667 35.8402 30.0667 36.0833C30.0667 36.3265 29.9894 36.5596 29.8519 36.7315C29.7144 36.9034 29.5278 37 29.3334 37Z" fill="#FCFCFC"/>
<path d="M11.7333 26.9167H11V29.6667C11 30.1529 11.1545 30.6192 11.4296 30.963C11.7046 31.3069 12.0777 31.5 12.4667 31.5H14.6667V30.5833C14.6658 29.6112 14.3565 28.6792 13.8066 27.9918C13.2567 27.3044 12.511 26.9177 11.7333 26.9167Z" fill="#FCFCFC"/>
<path d="M32.2667 25.0833H33V21.4167H32.2667C31.1001 21.415 29.9817 20.835 29.1569 19.8039C28.332 18.7728 27.868 17.3748 27.8667 15.9167V15H16.1333V15.9167C16.132 17.3748 15.668 18.7728 14.8431 19.8039C14.0183 20.835 12.8999 21.415 11.7333 21.4167H11V25.0833H11.7333C12.8999 25.085 14.0183 25.665 14.8431 26.6961C15.668 27.7272 16.132 29.1252 16.1333 30.5833V31.5H27.8667V30.5833C27.868 29.1252 28.332 27.7272 29.1569 26.6961C29.9817 25.665 31.1001 25.085 32.2667 25.0833ZM22 28.75C21.1298 28.75 20.2791 28.4274 19.5555 27.8231C18.8319 27.2187 18.268 26.3598 17.9349 25.3548C17.6019 24.3498 17.5148 23.2439 17.6845 22.177C17.8543 21.1101 18.2734 20.1301 18.8887 19.3609C19.5041 18.5917 20.2881 18.0679 21.1416 17.8557C21.9951 17.6435 22.8798 17.7524 23.6838 18.1687C24.4878 18.5849 25.175 19.2899 25.6585 20.1944C26.1419 21.0988 26.4 22.1622 26.4 23.25C26.3987 24.7082 25.9347 26.1062 25.1098 27.1372C24.2849 28.1683 23.1665 28.7483 22 28.75Z" fill="#FCFCFC"/>
<path d="M29.3334 30.5833V31.5H31.5334C31.9224 31.5 32.2954 31.3069 32.5705 30.963C32.8455 30.6192 33 30.1529 33 29.6667V26.9167H32.2667C31.489 26.9177 30.7434 27.3044 30.1935 27.9918C29.6435 28.6792 29.3342 29.6112 29.3334 30.5833Z" fill="#FCFCFC"/>
<path d="M32.2667 19.5833H33V16.8333C33 16.3471 32.8455 15.8808 32.5705 15.537C32.2954 15.1932 31.9224 15 31.5334 15H29.3334V15.9167C29.3342 16.8888 29.6435 17.8208 30.1935 18.5082C30.7434 19.1956 31.489 19.5823 32.2667 19.5833Z" fill="#FCFCFC"/>
<path d="M14.6667 15.9167V15H12.4667C12.0777 15 11.7046 15.1932 11.4296 15.537C11.1545 15.8808 11 16.3471 11 16.8333V19.5833H11.7333C12.511 19.5823 13.2567 19.1956 13.8066 18.5082C14.3565 17.8208 14.6658 16.8888 14.6667 15.9167Z" fill="#FCFCFC"/>
<path d="M20.6675 23.6304H19.979V25H19.3613V21.4453H20.6113C21.0215 21.4453 21.3381 21.5373 21.561 21.7212C21.784 21.9051 21.8955 22.1712 21.8955 22.5195C21.8955 22.7572 21.8377 22.9565 21.7222 23.1177C21.6082 23.2772 21.4487 23.4001 21.2437 23.4863L22.042 24.9683V25H21.3804L20.6675 23.6304ZM19.979 23.1348H20.6138C20.8221 23.1348 20.9849 23.0827 21.1021 22.9785C21.2192 22.8727 21.2778 22.7287 21.2778 22.5464C21.2778 22.356 21.2233 22.2087 21.1143 22.1045C21.0068 22.0003 20.8457 21.9466 20.6309 21.9434H19.979V23.1348ZM24.7373 23.7061C24.7373 24.1146 24.6445 24.4409 24.459 24.6851C24.2734 24.9276 24.0244 25.0488 23.7119 25.0488C23.4222 25.0488 23.1903 24.9536 23.0161 24.7632V26.0156H22.4229V22.3584H22.9697L22.9941 22.627C23.1683 22.4154 23.4051 22.3096 23.7046 22.3096C24.0269 22.3096 24.2791 22.43 24.4614 22.6709C24.6453 22.9102 24.7373 23.243 24.7373 23.6694V23.7061ZM24.1465 23.6548C24.1465 23.3911 24.0936 23.182 23.9878 23.0273C23.8836 22.8727 23.7339 22.7954 23.5386 22.7954C23.2961 22.7954 23.1219 22.8955 23.0161 23.0957V24.2676C23.1235 24.4727 23.2993 24.5752 23.5435 24.5752C23.7323 24.5752 23.8796 24.4995 23.9854 24.3481C24.0928 24.1951 24.1465 23.964 24.1465 23.6548Z" fill="#FCFCFC"/>
<defs>
<filter id="filter0_dd" x="0" y="0" width="44" height="52" filterUnits="userSpaceOnUse" color-interpolation-filters="sRGB">
<feFlood flood-opacity="0" result="BackgroundImageFix"/>
<feColorMatrix in="SourceAlpha" type="matrix" values="0 0 0 0 0 0 0 0 0 0 0 0 0 0 0 0 0 0 127 0"/>
<feOffset dy="-4"/>
<feGaussianBlur stdDeviation="2"/>
<feColorMatrix type="matrix" values="0 0 0 0 0.215686 0 0 0 0 0.203922 0 0 0 0 0.827451 0 0 0 0.8 0"/>
<feBlend mode="normal" in2="BackgroundImageFix" result="effect1_dropShadow"/>
<feColorMatrix in="SourceAlpha" type="matrix" values="0 0 0 0 0 0 0 0 0 0 0 0 0 0 0 0 0 0 127 0"/>
<feOffset dy="4"/>
<feGaussianBlur stdDeviation="2"/>
<feColorMatrix type="matrix" values="0 0 0 0 0.215686 0 0 0 0 0.203922 0 0 0 0 0.827451 0 0 0 0.8 0"/>
<feBlend mode="normal" in2="effect1_dropShadow" result="effect2_dropShadow"/>
<feBlend mode="normal" in="SourceGraphic" in2="effect2_dropShadow" result="shape"/>
</filter>
</defs>
</svg>
