<svg width="30" height="30" viewBox="0 0 30 30" fill="none" xmlns="http://www.w3.org/2000/svg">
<path d="M23.8172 8.71429H7.4375C7.05766 8.71429 6.75 8.36268 6.75 7.92857C6.75 7.49446 7.05766 7.14286 7.4375 7.14286H23.9375C24.3173 7.14286 24.625 6.79125 24.625 6.35714C24.625 5.05531 23.7016 4 22.5625 4H6.75C5.23105 4 4 5.40692 4 7.14286V22.8571C4 24.5931 5.23105 26 6.75 26H23.8172C25.0212 26 26 24.9427 26 23.6429V11.0714C26 9.77156 25.0212 8.71429 23.8172 8.71429ZM21.875 18.9286C21.1157 18.9286 20.5 18.2249 20.5 17.3571C20.5 16.4894 21.1157 15.7857 21.875 15.7857C22.6343 15.7857 23.25 16.4894 23.25 17.3571C23.25 18.2249 22.6343 18.9286 21.875 18.9286Z" fill="#FCFCFC"/>
</svg>
