<svg width="30" height="30" viewBox="0 0 30 30" fill="none" xmlns="http://www.w3.org/2000/svg">
<path fill-rule="evenodd" clip-rule="evenodd" d="M4 24.6596H26V26H4V24.6596Z" fill="#FCFCFC"/>
<path fill-rule="evenodd" clip-rule="evenodd" d="M24.5755 4L18.0106 5.21039L20.2315 7.43612L13.6335 13.0482L8.00303 8.43901C7.93486 8.37869 7.85548 8.33246 7.76943 8.30299C7.68338 8.27351 7.59237 8.26137 7.50162 8.26725C7.41087 8.27314 7.32218 8.29694 7.24064 8.33728C7.1591 8.37763 7.08632 8.43372 7.02648 8.50235C6.96665 8.57097 6.92093 8.65076 6.89197 8.73715C6.863 8.82353 6.85136 8.9148 6.8577 9.00571C6.86404 9.09662 6.88825 9.18538 6.92894 9.26688C6.96962 9.34838 7.02597 9.42103 7.09476 9.48063L13.6445 14.8949L21.2074 8.41411L23.532 10.7436L24.5755 4Z" fill="#FCFCFC"/>
<path fill-rule="evenodd" clip-rule="evenodd" d="M19.1838 13.5932H23.2572V23.1075H19.1838V13.5932Z" fill="#FCFCFC"/>
<path fill-rule="evenodd" clip-rule="evenodd" d="M5.38037 14.9765H9.49657V23.1075H5.38037V14.9765Z" fill="#FCFCFC"/>
<path fill-rule="evenodd" clip-rule="evenodd" d="M12.2821 17.7431H16.3555V23.1269H12.2821V17.7431Z" fill="#FCFCFC"/>
</svg>
