<svg width="30" height="30" viewBox="0 0 30 30" fill="none" xmlns="http://www.w3.org/2000/svg">
<path d="M6.01706 8.02553V23.9872H22.0128V26H6.01706C5.45416 26 4.97726 25.805 4.58635 25.4149C4.19545 25.0248 4 24.5489 4 23.9872V8.02553H6.01706ZM24.0299 4C24.5615 4 25.0227 4.19504 25.4136 4.58511C25.8045 4.97518 26 5.45106 26 6.01277V20.0085C26 20.539 25.8045 20.9993 25.4136 21.3894C25.0227 21.7794 24.5615 21.9745 24.0299 21.9745H10.0043C9.44136 21.9745 8.96446 21.7794 8.57356 21.3894C8.18266 20.9993 7.98721 20.539 7.98721 20.0085V6.01277C7.98721 5.45106 8.18266 4.97518 8.57356 4.58511C8.96446 4.19504 9.44136 4 10.0043 4H24.0299ZM24.0299 20.0085V6.01277H10.0043V20.0085H24.0299Z" fill="#FCFCFC"/>
<rect x="12" y="8" width="4" height="4" fill="#FCFCFC"/>
<rect x="18" y="8" width="4" height="4" fill="#FCFCFC"/>
<rect x="12" y="13" width="4" height="4" fill="#FCFCFC"/>
<rect x="18" y="13" width="4" height="4" fill="#FCFCFC"/>
</svg>
