<svg width="30" height="30" viewBox="0 0 30 30" fill="none" xmlns="http://www.w3.org/2000/svg">
<path d="M12.8 19.8889V18.6667H5.111L5.1 23.5556C5.1 24.9122 6.079 26 7.3 26H22.7C23.921 26 24.9 24.9122 24.9 23.5556V18.6667H17.2V19.8889H12.8ZM23.8 8.88889H19.389V6.44444L17.189 4H12.789L10.589 6.44444V8.88889H6.2C4.99 8.88889 4 9.98889 4 11.3333V15C4 16.3567 4.979 17.4444 6.2 17.4444H12.8V15H17.2V17.4444H23.8C25.01 17.4444 26 16.3444 26 15V11.3333C26 9.98889 25.01 8.88889 23.8 8.88889ZM17.2 8.88889H12.8V6.44444H17.2V8.88889Z" fill="#FCFCFC"/>
</svg>
