<svg width="30" height="30" viewBox="0 0 30 30" fill="none" xmlns="http://www.w3.org/2000/svg">
<path d="M23.8 23.25H6.20001C6.00552 23.25 5.81899 23.1534 5.68146 22.9815C5.54394 22.8096 5.46667 22.5764 5.46667 22.3333C5.46667 22.0902 5.54394 21.857 5.68146 21.6851C5.81899 21.5132 6.00552 21.4167 6.20001 21.4167H23.8C23.9945 21.4167 24.181 21.5132 24.3186 21.6851C24.4561 21.857 24.5333 22.0902 24.5333 22.3333C24.5333 22.5764 24.4561 22.8096 24.3186 22.9815C24.181 23.1534 23.9945 23.25 23.8 23.25Z" fill="#FCFCFC"/>
<path d="M22.3334 26H7.66668C7.47219 26 7.28566 25.9034 7.14814 25.7315C7.01061 25.5596 6.93335 25.3264 6.93335 25.0833C6.93335 24.8402 7.01061 24.607 7.14814 24.4351C7.28566 24.2632 7.47219 24.1667 7.66668 24.1667H22.3334C22.5278 24.1667 22.7144 24.2632 22.8519 24.4351C22.9894 24.607 23.0667 24.8402 23.0667 25.0833C23.0667 25.3264 22.9894 25.5596 22.8519 25.7315C22.7144 25.9034 22.5278 26 22.3334 26Z" fill="#FCFCFC"/>
<path d="M4.73333 15.9167H4V18.6667C4 19.1529 4.15452 19.6192 4.42958 19.963C4.70463 20.3068 5.07768 20.5 5.46667 20.5H7.66667V19.5833C7.66582 18.6112 7.3565 17.6792 6.80658 16.9918C6.25665 16.3044 5.51104 15.9177 4.73333 15.9167Z" fill="#FCFCFC"/>
<path d="M25.2667 14.0833H26V10.4167H25.2667C24.1001 10.415 22.9817 9.835 22.1569 8.80391C21.332 7.77282 20.868 6.37485 20.8667 4.91667V4H9.13333V4.91667C9.132 6.37485 8.668 7.77282 7.84313 8.80391C7.01826 9.835 5.89988 10.415 4.73333 10.4167H4V14.0833H4.73333C5.89988 14.085 7.01826 14.665 7.84313 15.6961C8.668 16.7272 9.132 18.1252 9.13333 19.5833V20.5H20.8667V19.5833C20.868 18.1252 21.332 16.7272 22.1569 15.6961C22.9817 14.665 24.1001 14.085 25.2667 14.0833ZM15 17.75C14.1298 17.75 13.2791 17.4274 12.5555 16.8231C11.8319 16.2187 11.268 15.3598 10.9349 14.3548C10.6019 13.3498 10.5148 12.2439 10.6845 11.177C10.8543 10.1101 11.2734 9.1301 11.8887 8.36091C12.5041 7.59172 13.2881 7.0679 14.1416 6.85568C14.9951 6.64346 15.8798 6.75238 16.6838 7.16866C17.4878 7.58494 18.175 8.28989 18.6585 9.19436C19.1419 10.0988 19.4 11.1622 19.4 12.25C19.3987 13.7082 18.9347 15.1062 18.1098 16.1372C17.2849 17.1683 16.1665 17.7483 15 17.75Z" fill="#FCFCFC"/>
<path d="M22.3334 19.5833V20.5H24.5334C24.9224 20.5 25.2954 20.3068 25.5705 19.963C25.8455 19.6192 26 19.1529 26 18.6667V15.9167H25.2667C24.489 15.9177 23.7434 16.3044 23.1935 16.9918C22.6435 17.6792 22.3342 18.6112 22.3334 19.5833Z" fill="#FCFCFC"/>
<path d="M25.2666 8.58333H26V5.83333C26 5.3471 25.8455 4.88079 25.5704 4.53697C25.2953 4.19315 24.9223 4 24.5333 4H22.3333V4.91667C22.3342 5.8888 22.6435 6.82082 23.1934 7.50822C23.7433 8.19562 24.4889 8.58227 25.2666 8.58333Z" fill="#FCFCFC"/>
<path d="M7.66667 4.91667V4H5.46667C5.07768 4 4.70463 4.19315 4.42958 4.53697C4.15452 4.88079 4 5.3471 4 5.83333V8.58333H4.73333C5.51104 8.58227 6.25665 8.19562 6.80658 7.50822C7.3565 6.82082 7.66582 5.8888 7.66667 4.91667Z" fill="#FCFCFC"/>
<path d="M13.6675 12.6304H12.979V14H12.3613V10.4453H13.6113C14.0215 10.4453 14.3381 10.5373 14.561 10.7212C14.784 10.9051 14.8955 11.1712 14.8955 11.5195C14.8955 11.7572 14.8377 11.9565 14.7222 12.1177C14.6082 12.2772 14.4487 12.4001 14.2437 12.4863L15.042 13.9683V14H14.3804L13.6675 12.6304ZM12.979 12.1348H13.6138C13.8221 12.1348 13.9849 12.0827 14.1021 11.9785C14.2192 11.8727 14.2778 11.7287 14.2778 11.5464C14.2778 11.356 14.2233 11.2087 14.1143 11.1045C14.0068 11.0003 13.8457 10.9466 13.6309 10.9434H12.979V12.1348ZM17.7373 12.7061C17.7373 13.1146 17.6445 13.4409 17.459 13.6851C17.2734 13.9276 17.0244 14.0488 16.7119 14.0488C16.4222 14.0488 16.1903 13.9536 16.0161 13.7632V15.0156H15.4229V11.3584H15.9697L15.9941 11.627C16.1683 11.4154 16.4051 11.3096 16.7046 11.3096C17.0269 11.3096 17.2791 11.43 17.4614 11.6709C17.6453 11.9102 17.7373 12.243 17.7373 12.6694V12.7061ZM17.1465 12.6548C17.1465 12.3911 17.0936 12.182 16.9878 12.0273C16.8836 11.8727 16.7339 11.7954 16.5386 11.7954C16.2961 11.7954 16.1219 11.8955 16.0161 12.0957V13.2676C16.1235 13.4727 16.2993 13.5752 16.5435 13.5752C16.7323 13.5752 16.8796 13.4995 16.9854 13.3481C17.0928 13.1951 17.1465 12.964 17.1465 12.6548Z" fill="#FCFCFC"/>
</svg>
