<svg width="30" height="30" viewBox="0 0 30 30" fill="none" xmlns="http://www.w3.org/2000/svg">
<path d="M23.7649 17.9442V10.0619C23.7649 9.81714 23.5315 9.64801 23.2463 9.64801H21.2393C20.9541 9.64801 20.7052 9.81714 20.7052 10.0619V17.1742C20.3733 17.1831 20.0414 17.2187 19.7198 17.2855V12.3852C19.7198 12.1404 19.4761 11.9624 19.1909 11.9624H17.1839C16.8987 11.9624 16.6601 12.136 16.6601 12.3852V19.0302C16.043 19.7734 15.7111 20.668 15.7163 21.5849C15.7163 24.0239 18.0189 26 20.8556 26C23.6975 26 26 24.0239 26 21.5893C26 20.1295 25.1651 18.7676 23.7649 17.9442ZM21.7424 10.5382H22.7277V17.4724C22.4113 17.3656 22.0794 17.2855 21.7424 17.241V10.5382ZM17.6973 12.8525H18.6827V17.5926C18.3352 17.7305 18.0033 17.8997 17.6973 18.1V12.8525ZM24.3924 23.3785C23.6508 24.4512 22.3076 25.1054 20.8607 25.1054C18.5945 25.1054 16.7587 23.5254 16.7587 21.5849C16.7587 20.1607 17.7596 18.8744 19.2946 18.3314C19.3568 18.3225 19.4139 18.3002 19.4657 18.2735C19.9117 18.1311 20.3888 18.0599 20.8659 18.0599C20.9748 18.0599 21.0786 18.0644 21.1875 18.0733H21.1926C21.815 18.1133 22.4217 18.278 22.9559 18.5539C24.9057 19.5465 25.5488 21.7051 24.3924 23.3785Z" fill="#FCFCFC"/>
<path d="M11.0594 15.5229H9.03684C8.75162 15.5229 8.51825 15.7232 8.51825 15.968V22.9557C8.51825 23.2005 8.75162 23.4008 9.03684 23.4008H11.0594C11.3446 23.4008 11.5779 23.2005 11.5779 22.9557V15.968C11.5779 15.7232 11.3446 15.5229 11.0594 15.5229ZM10.5408 22.5551H9.55543V16.4131H10.5408V22.5551Z" fill="#FCFCFC"/>
<path d="M15.1562 14.4993H13.1337C12.8485 14.4993 12.6151 14.6996 12.6151 14.9443V23.0002C12.6151 23.245 12.8485 23.4453 13.1337 23.4453H15.1562C15.4414 23.4453 15.6748 23.245 15.6748 23.0002V14.9443C15.6748 14.6996 15.4414 14.4993 15.1562 14.4993ZM14.6376 22.5551H13.6523V15.3894H14.6376V22.5551Z" fill="#FCFCFC"/>
<path d="M6.96249 19.3506H4.93998C4.65475 19.3506 4.42139 19.5509 4.42139 19.7957V22.9557C4.42139 23.2005 4.65475 23.4008 4.93998 23.4008H6.96249C7.24772 23.4008 7.48108 23.2005 7.48108 22.9557V19.7957C7.48108 19.5509 7.24772 19.3506 6.96249 19.3506ZM6.4439 22.5551H5.45857V20.2407H6.4439V22.5551Z" fill="#FCFCFC"/>
<path d="M23.6871 4L20.1399 4.00445C19.8547 4 19.6213 4.20028 19.6161 4.44507C19.6109 4.68986 19.8443 4.89015 20.1295 4.8946C20.1347 4.8946 20.1347 4.8946 20.1399 4.8946L22.4373 4.89015L16.8105 9.7014L14.8451 8.02792C14.7465 7.9478 14.6117 7.90775 14.4769 7.9122C14.342 7.90775 14.2072 7.9478 14.1087 8.02792L4.15169 16.5733C3.94944 16.7469 3.94944 17.0273 4.15169 17.1964C4.25022 17.281 4.37987 17.3255 4.51989 17.3255C4.65991 17.3255 4.78956 17.281 4.88809 17.1964L14.4821 8.96257L16.4475 10.6628C16.5409 10.7518 16.6757 10.8007 16.8157 10.8052C16.9557 10.8007 17.0854 10.7473 17.1839 10.6628L23.1685 5.52215L23.1633 7.50273C23.1633 7.75197 23.3915 7.95226 23.6819 7.96116C23.9723 7.95671 24.2005 7.75197 24.2005 7.50273L24.2057 4.44952C24.2057 4.20473 23.9723 4 23.6871 4Z" fill="#FCFCFC"/>
<path d="M19.6089 22.0663H19.1421V23.1073H18.5562V20.2635H19.6128C19.9487 20.2635 20.2078 20.3384 20.3901 20.4882C20.5724 20.6379 20.6636 20.8495 20.6636 21.1229C20.6636 21.3169 20.6213 21.479 20.5366 21.6093C20.4533 21.7382 20.3263 21.841 20.1558 21.9178L20.771 23.08V23.1073H20.1421L19.6089 22.0663ZM19.1421 21.5917H19.6147C19.7619 21.5917 19.8758 21.5546 19.9565 21.4803C20.0373 21.4048 20.0776 21.3013 20.0776 21.1698C20.0776 21.0357 20.0392 20.9302 19.9624 20.8534C19.8869 20.7766 19.7703 20.7382 19.6128 20.7382H19.1421V21.5917ZM22.9761 22.0702C22.9761 22.3957 22.9019 22.6568 22.7534 22.8534C22.6063 23.0487 22.4071 23.1464 22.1558 23.1464C21.9422 23.1464 21.7697 23.0721 21.6382 22.9237V23.9198H21.0737V20.994H21.5972L21.6167 21.201C21.7534 21.037 21.9318 20.955 22.1519 20.955C22.4123 20.955 22.6147 21.0513 22.7593 21.244C22.9038 21.4367 22.9761 21.7024 22.9761 22.0409V22.0702ZM22.4116 22.0292C22.4116 21.8326 22.3765 21.6809 22.3062 21.5741C22.2371 21.4673 22.1362 21.4139 22.0034 21.4139C21.8263 21.4139 21.7046 21.4816 21.6382 21.6171V22.4823C21.7072 22.6216 21.8302 22.6913 22.0073 22.6913C22.2769 22.6913 22.4116 22.4706 22.4116 22.0292Z" fill="#FCFCFC"/>
</svg>
