<svg width="30" height="30" viewBox="0 0 30 30" fill="none" xmlns="http://www.w3.org/2000/svg">
<path d="M20.7619 16.5714H23.9048V17.3572H20.7619V16.5714Z" fill="#FCFCFC"/>
<path d="M20.7619 19.7143H23.9048V20.5H20.7619V19.7143Z" fill="#FCFCFC"/>
<path d="M20.7619 18.1429H23.9048V18.9286H20.7619V18.1429Z" fill="#FCFCFC"/>
<path d="M20.7619 15H23.9048V15.7857H20.7619V15Z" fill="#FCFCFC"/>
<path d="M12.381 16.5714H19.7143V17.3572H12.381V16.5714Z" fill="#FCFCFC"/>
<path d="M12.381 11.8571H19.7143V12.6429H12.381V11.8571Z" fill="#FCFCFC"/>
<path d="M20.7619 11.8571H23.9048V12.6429H20.7619V11.8571Z" fill="#FCFCFC"/>
<path d="M12.381 18.1429H19.7143V18.9286H12.381V18.1429Z" fill="#FCFCFC"/>
<path d="M12.381 13.4285H19.7143V14.2142H12.381V13.4285Z" fill="#FCFCFC"/>
<path d="M12.381 15H19.7143V15.7857H12.381V15Z" fill="#FCFCFC"/>
<path d="M20.7619 13.4285H23.9048V14.2142H20.7619V13.4285Z" fill="#FCFCFC"/>
<path d="M10.2857 4.55548L7.88354 6.3571H10.2862L10.2857 4.55548Z" fill="#FCFCFC"/>
<path d="M7.14282 7.14286V23.25H26V4.39286C26 4.1759 25.7654 4 25.4762 4H11.3333V6.35714C11.3333 6.79105 10.8642 7.14286 10.2857 7.14286H7.14282ZM11.8571 21.6786H8.71425V20.8929H11.8571V21.6786ZM13.9523 5.57143H19.1904V6.35714H13.9523V5.57143ZM18.1428 7.14286V7.92857H15V7.14286H18.1428ZM24.4285 8.71429C24.7178 8.71429 24.9523 8.89019 24.9523 9.10714V20.8929C24.9523 21.1098 24.7178 21.2857 24.4285 21.2857H20.2381C19.9488 21.2857 19.7143 21.1098 19.7143 20.8929V19.7143H8.71425C8.42498 19.7143 8.19044 19.5384 8.19044 19.3214V9.10714C8.19044 8.89019 8.42498 8.71429 8.71425 8.71429H24.4285Z" fill="#FCFCFC"/>
<path d="M6.09524 23.25V6.75001C6.09524 6.74138 6.10112 6.7339 6.10214 6.72527C6.1047 6.69093 6.11365 6.65679 6.12874 6.62437C6.13463 6.61171 6.13872 6.59962 6.14614 6.58735C6.17146 6.54457 6.20675 6.50563 6.25074 6.47225L7.44978 5.57144H5.57143C4.70361 5.57144 4 6.09915 4 6.75001V24.8214C4 25.4723 4.70361 26 5.57143 26H22.3333C23.2012 26 23.9048 25.4723 23.9048 24.8214V24.0357H7.14286C6.56431 24.0357 6.09524 23.6839 6.09524 23.25Z" fill="#FCFCFC"/>
<path d="M9.2381 18.1429H11.3333V18.9286H9.2381V18.1429Z" fill="#FCFCFC"/>
<path d="M9.2381 16.5714H11.3333V17.3572H9.2381V16.5714Z" fill="#FCFCFC"/>
<path d="M9.2381 13.4285H11.3333V14.2142H9.2381V13.4285Z" fill="#FCFCFC"/>
<path d="M20.2381 11.0714H23.9048V9.5H9.2381V11.0714H20.2381Z" fill="#FCFCFC"/>
<path d="M9.2381 11.8571H11.3333V12.6429H9.2381V11.8571Z" fill="#FCFCFC"/>
<path d="M9.2381 15H11.3333V15.7857H9.2381V15Z" fill="#FCFCFC"/>
</svg>
