<svg width="40" height="40" viewBox="0 0 40 40" fill="none" xmlns="http://www.w3.org/2000/svg">
<path d="M38.087 20C38.087 30.5153 29.7631 39 19.5435 39C9.32385 39 1 30.5153 1 20C1 9.4847 9.32385 1 19.5435 1C29.7631 1 38.087 9.4847 38.087 20Z" fill="#2B73DF" stroke="#FCFCFC" stroke-width="2"/>
<path d="M33.0667 20C33.0667 27.6779 26.9905 33.8624 19.5435 33.8624C12.0965 33.8624 6.02039 27.6779 6.02039 20C6.02039 12.3221 12.0965 6.1376 19.5435 6.1376C26.9905 6.1376 33.0667 12.3221 33.0667 20Z" stroke="#FCFCFC" stroke-width="2"/>
<rect x="26.6561" y="25.6096" width="12.3438" height="12.6789" fill="#2B73DF" stroke="#FCFCFC" stroke-width="2"/>
<path d="M32.5163 27.9073L29.0884 32.172L30.2982 33.6772L31.6895 31.9464V35.0889H33.4004V32.0177L34.7343 33.6772L35.9441 32.172L32.5163 27.9073Z" fill="#FCFCFC"/>
<path d="M16.4861 20.328H14.5583V24.163H12.8289V14.2098H16.3289C17.4773 14.2098 18.3637 14.4673 18.988 14.9823C19.6124 15.4973 19.9246 16.2424 19.9246 17.2177C19.9246 17.883 19.7628 18.4413 19.4392 18.8925C19.1202 19.3391 18.6736 19.6831 18.0994 19.9247L20.3347 24.0741V24.163H18.4822L16.4861 20.328ZM14.5583 18.9403H16.3357C16.919 18.9403 17.3748 18.7945 17.7029 18.5028C18.031 18.2066 18.1951 17.8033 18.1951 17.2928C18.1951 16.7596 18.0424 16.3472 17.7371 16.0555C17.4363 15.7639 16.9851 15.6135 16.3835 15.6044H14.5583V18.9403ZM27.8816 20.5399C27.8816 21.6838 27.6218 22.5975 27.1023 23.2811C26.5828 23.9602 25.8855 24.2997 25.0105 24.2997C24.1993 24.2997 23.5499 24.0331 23.0623 23.4999V27.0067H21.4011V16.7665H22.9324L23.0007 17.5184C23.4884 16.926 24.1514 16.6298 24.99 16.6298C25.8923 16.6298 26.5987 16.967 27.1091 17.6415C27.6241 18.3114 27.8816 19.2434 27.8816 20.4374V20.5399ZM26.2273 20.3964C26.2273 19.6581 26.0792 19.0725 25.783 18.6395C25.4913 18.2066 25.072 17.9901 24.5251 17.9901C23.8461 17.9901 23.3585 18.2704 23.0623 18.8309V22.1122C23.363 22.6864 23.8552 22.9735 24.5388 22.9735C25.0675 22.9735 25.4799 22.7616 25.7761 22.3378C26.0769 21.9094 26.2273 21.2622 26.2273 20.3964Z" fill="#FCFCFC"/>
</svg>
