<svg width="40" height="40" viewBox="0 0 40 40" fill="none" xmlns="http://www.w3.org/2000/svg">
<path d="M20 40C31.0457 40 40 31.0457 40 20C40 8.9543 31.0457 0 20 0C8.9543 0 0 8.9543 0 20C0 31.0457 8.9543 40 20 40Z" fill="#69E781"/>
<path d="M40 20C40 19.2691 39.9597 18.5478 39.8833 17.8373L31.3042 9.25821L29.8166 13.1296L23.386 6.69907L4.974 27.3438L17.4717 39.8415C18.2998 39.9459 19.1436 40 20 40C31.0457 40 40 31.0457 40 20Z" fill="#69E781"/>
<path d="M23.386 6.69907H16.614C15.476 8.52453 13.4513 9.74 11.1417 9.74C10.2757 9.74 9.45018 9.56805 8.6958 9.25828V24.0946C8.6958 26.0746 9.6483 27.9338 11.2553 29.0904L20 35.3843L28.7447 29.0904C30.3517 27.9338 31.3042 26.0746 31.3042 24.0946V9.25821C30.5499 9.56797 29.7243 9.73992 28.8583 9.73992C26.5488 9.73992 24.5241 8.52446 23.386 6.69907Z" fill="#E3E9ED"/>
<path d="M20 35.3843L28.7447 29.0904C30.3517 27.9337 31.3042 26.0746 31.3042 24.0946V9.25819C30.5498 9.56796 29.7243 9.73991 28.8582 9.73991C26.5487 9.73991 24.524 8.52444 23.386 6.69897H19.9962L20 35.3843Z" fill="#E3E9ED"/>
<path d="M22.6603 9.77289H17.3396C16.4454 11.2071 14.8547 12.1621 13.0401 12.1621C12.3597 12.1621 11.7111 12.027 11.1184 11.7837V23.4404C11.1184 24.9961 11.8668 26.4567 13.1294 27.3655L20 32.3105L26.8705 27.3654C28.1332 26.4566 28.8815 24.9959 28.8815 23.4403V11.7836C28.2888 12.027 27.6402 12.162 26.9598 12.162C25.1452 12.162 23.5544 11.2071 22.6603 9.77289Z" fill="#E3E9ED"/>
<path d="M20 32.3105L26.8706 27.3654C28.1332 26.4567 28.8816 24.996 28.8816 23.4403V11.7836C28.2888 12.027 27.6402 12.162 26.9599 12.162C25.1452 12.162 23.5545 11.207 22.6604 9.77283H19.9963L20 32.3105Z" fill="#E3E9ED"/>
<path d="M16.6689 21.165H14.7412V25H13.0117V15.0469H16.5117C17.6602 15.0469 18.5465 15.3044 19.1709 15.8193C19.7952 16.3343 20.1074 17.0794 20.1074 18.0547C20.1074 18.7201 19.9456 19.2783 19.6221 19.7295C19.3031 20.1761 18.8564 20.5202 18.2822 20.7617L20.5176 24.9111V25H18.665L16.6689 21.165ZM14.7412 19.7773H16.5186C17.1019 19.7773 17.5576 19.6315 17.8857 19.3398C18.2139 19.0436 18.3779 18.6403 18.3779 18.1299C18.3779 17.5967 18.2253 17.1842 17.9199 16.8926C17.6191 16.6009 17.168 16.4505 16.5664 16.4414H14.7412V19.7773ZM28.0645 21.377C28.0645 22.5208 27.8047 23.4346 27.2852 24.1182C26.7656 24.7972 26.0684 25.1367 25.1934 25.1367C24.3822 25.1367 23.7327 24.8701 23.2451 24.3369V27.8438H21.584V17.6035H23.1152L23.1836 18.3555C23.6712 17.763 24.3343 17.4668 25.1729 17.4668C26.0752 17.4668 26.7816 17.804 27.292 18.4785C27.807 19.1484 28.0645 20.0804 28.0645 21.2744V21.377ZM26.4102 21.2334C26.4102 20.4951 26.262 19.9095 25.9658 19.4766C25.6742 19.0436 25.2549 18.8271 24.708 18.8271C24.029 18.8271 23.5413 19.1074 23.2451 19.668V22.9492C23.5459 23.5234 24.0381 23.8105 24.7217 23.8105C25.2503 23.8105 25.6628 23.5986 25.959 23.1748C26.2598 22.7464 26.4102 22.0993 26.4102 21.2334Z" fill="#21BF74"/>
</svg>
