<svg width="36" height="36" viewBox="0 0 36 36" fill="none" xmlns="http://www.w3.org/2000/svg">
<rect width="36" height="36" rx="18" fill="#3546A3"/>
<path d="M17.801 22.0002C17.5396 22.0013 17.281 22.054 17.0399 22.1552C16.7989 22.2563 16.5801 22.404 16.3961 22.5897C16.2122 22.7755 16.0666 22.9956 15.9677 23.2376C15.8689 23.4796 15.8187 23.7388 15.82 24.0002C15.82 25.1042 16.707 26.0002 17.801 26.0002C18.0623 25.9989 18.3208 25.9461 18.5618 25.8449C18.8027 25.7436 19.0214 25.596 19.2052 25.4102C19.3891 25.2245 19.5346 25.0044 19.6334 24.7625C19.7321 24.5205 19.7823 24.2615 19.781 24.0002C19.781 22.8952 18.895 22.0002 17.801 22.0002ZM13.601 19.7582L15.001 21.1722C15.3669 20.8011 15.8029 20.5064 16.2837 20.3053C16.7644 20.1042 17.2804 20.0006 17.8015 20.0006C18.3226 20.0006 18.8386 20.1042 19.3193 20.3053C19.8001 20.5064 20.2361 20.8011 20.602 21.1722L22.001 19.7582C21.4523 19.2016 20.7984 18.7596 20.0774 18.458C19.3564 18.1563 18.5826 18.001 17.801 18.001C17.0194 18.001 16.2456 18.1563 15.5246 18.458C14.8036 18.7596 14.1497 19.2016 13.601 19.7582ZM10.801 16.9282L12.201 18.3422C12.9326 17.6002 13.8044 17.0111 14.7657 16.609C15.7269 16.2068 16.7585 15.9998 17.8005 15.9998C18.8425 15.9998 19.8741 16.2068 20.8353 16.609C21.7966 17.0111 22.6684 17.6002 23.4 18.3422L24.801 16.9282C23.8864 16.0007 22.7966 15.2642 21.5949 14.7615C20.3932 14.2588 19.1036 14 17.801 14C16.4984 14 15.2088 14.2588 14.0071 14.7615C12.8054 15.2642 11.7156 16.0007 10.801 16.9282ZM8 14.1002L9.4 15.5142C10.4975 14.401 11.8054 13.5171 13.2475 12.9137C14.6896 12.3104 16.2373 11.9997 17.8005 11.9997C19.3637 11.9997 20.9114 12.3104 22.3535 12.9137C23.7956 13.5171 25.1035 14.401 26.201 15.5142L27.601 14.1002C26.3206 12.8015 24.7948 11.7702 23.1123 11.0664C21.4298 10.3625 19.6243 10 17.8005 10C15.9767 10 14.1712 10.3625 12.4887 11.0664C10.8062 11.7702 9.28044 12.8015 8 14.1002Z" fill="#FCFCFC"/>
</svg>
