<svg width="36" height="36" viewBox="0 0 36 36" fill="none" xmlns="http://www.w3.org/2000/svg">
<rect width="36" height="36" rx="18" fill="#F2B200"/>
<path d="M24.4654 8.41967C24.4654 7.72715 23.7382 7 22.9765 7H13.4889C12.7271 7 12 7.72715 12 8.41967V27.7064C12 28.4335 12.7271 29.126 13.4889 29.126H23.0111C23.7382 29.126 24.5 28.3989 24.5 27.7064V8.41967H24.4654Z" fill="#5C6D6D"/>
<path d="M24.1192 27.4294C24.1192 28.1219 23.4266 28.8144 22.7341 28.8144H13.7314C13.0388 28.8144 12.3463 28.1219 12.3463 27.4294V8.73129C12.3463 8.03877 13.0388 7.34625 13.7314 7.34625H22.7341C23.4266 7.34625 24.1192 8.03877 24.1192 8.73129V27.4294Z" fill="#212528"/>
<path d="M22.2147 8.90443C22.4059 8.90443 22.5609 8.74941 22.5609 8.55817C22.5609 8.36694 22.4059 8.21191 22.2147 8.21191C22.0234 8.21191 21.8684 8.36694 21.8684 8.55817C21.8684 8.74941 22.0234 8.90443 22.2147 8.90443Z" fill="#94989B"/>
<path d="M19.2714 8.5582C19.2714 8.66208 19.2368 8.73133 19.1675 8.73133H17.2977C17.2285 8.73133 17.1938 8.66208 17.1938 8.5582C17.1938 8.48895 17.2285 8.38507 17.2977 8.38507H19.1675C19.2368 8.38507 19.2714 8.48895 19.2714 8.5582Z" fill="#94989B"/>
<path d="M13.0388 9.77008H23.4266V26.3906H13.0388V9.77008Z" fill="#3E4347"/>
<path d="M19.5484 27.8449C19.5484 27.9834 19.4446 28.1219 19.2714 28.1219H17.1939C17.0554 28.1219 16.9169 28.018 16.9169 27.8449V27.3255C16.9169 27.187 17.0207 27.0485 17.1939 27.0485H19.2714C19.4099 27.0485 19.5484 27.1523 19.5484 27.3255V27.8449Z" fill="#94989B"/>
<path d="M15.4627 12.0901C15.4627 12.2632 15.3242 12.3671 15.1857 12.3671H14.043C13.8699 12.3671 13.766 12.2286 13.766 12.0901V10.9474C13.766 10.7743 13.9045 10.6704 14.043 10.6704H15.1857C15.3588 10.6704 15.4627 10.8089 15.4627 10.9474V12.0901Z" fill="#42ADE2"/>
<path d="M17.8865 12.0901C17.8865 12.2632 17.748 12.3671 17.6095 12.3671H16.4668C16.2937 12.3671 16.1898 12.2286 16.1898 12.0901V10.9474C16.1898 10.7743 16.3283 10.6704 16.4668 10.6704H17.6095C17.7826 10.6704 17.8865 10.8089 17.8865 10.9474V12.0901Z" fill="#C7E755"/>
<path d="M20.3103 12.0901C20.3103 12.2632 20.1718 12.3671 20.0333 12.3671H18.8907C18.7175 12.3671 18.6136 12.2286 18.6136 12.0901V10.9474C18.6136 10.7743 18.7522 10.6704 18.8907 10.6704H20.0333C20.2064 10.6704 20.3103 10.8089 20.3103 10.9474V12.0901Z" fill="#F2B200"/>
<path d="M22.7342 12.0901C22.7342 12.2632 22.5956 12.3671 22.4571 12.3671H21.3145C21.1414 12.3671 21.0375 12.2286 21.0375 12.0901V10.9474C21.0375 10.7743 21.176 10.6704 21.3145 10.6704H22.4571C22.6303 10.6704 22.7342 10.8089 22.7342 10.9474V12.0901Z" fill="#42ADE2"/>
<path d="M15.4627 25.4211C15.4627 25.5942 15.3242 25.6981 15.1857 25.6981H14.043C13.8699 25.6981 13.766 25.5596 13.766 25.4211V24.2784C13.766 24.1053 13.9045 24.0014 14.043 24.0014H15.1857C15.3588 24.0014 15.4627 24.1399 15.4627 24.2784V25.4211Z" fill="#C7E755"/>
<path d="M17.8865 25.4211C17.8865 25.5942 17.748 25.6981 17.6095 25.6981H16.4668C16.2937 25.6981 16.1898 25.5596 16.1898 25.4211V24.2784C16.1898 24.1053 16.3283 24.0014 16.4668 24.0014H17.6095C17.7826 24.0014 17.8865 24.1399 17.8865 24.2784V25.4211Z" fill="#FF435E"/>
<path d="M20.3103 25.4211C20.3103 25.5942 20.1718 25.6981 20.0333 25.6981H18.8907C18.7175 25.6981 18.6136 25.5596 18.6136 25.4211V24.2784C18.6136 24.1053 18.7522 24.0014 18.8907 24.0014H20.0333C20.2064 24.0014 20.3103 24.1399 20.3103 24.2784V25.4211Z" fill="#42ADE2"/>
<path d="M22.7342 25.4211C22.7342 25.5942 22.5956 25.6981 22.4571 25.6981H21.3145C21.1414 25.6981 21.0375 25.5596 21.0375 25.4211V24.2784C21.0375 24.1053 21.176 24.0014 21.3145 24.0014H22.4571C22.6303 24.0014 22.7342 24.1399 22.7342 24.2784V25.4211Z" fill="#C28FEF"/>
<path d="M15.4627 18.7383C15.4627 18.9114 15.3242 19.0153 15.1857 19.0153H14.043C13.8699 19.0153 13.766 18.8768 13.766 18.7383V17.5956C13.766 17.4225 13.9045 17.3186 14.043 17.3186H15.1857C15.3588 17.3186 15.4627 17.4571 15.4627 17.5956V18.7383Z" fill="#C7E755"/>
<path d="M17.8865 18.7383C17.8865 18.9114 17.748 19.0153 17.6095 19.0153H16.4668C16.2937 19.0153 16.1898 18.8768 16.1898 18.7383V17.5956C16.1898 17.4225 16.3283 17.3186 16.4668 17.3186H17.6095C17.7826 17.3186 17.8865 17.4571 17.8865 17.5956V18.7383Z" fill="#C28FEF"/>
<path d="M20.3103 18.7383C20.3103 18.9114 20.1718 19.0153 20.0333 19.0153H18.8907C18.7175 19.0153 18.6136 18.8768 18.6136 18.7383V17.5956C18.6136 17.4225 18.7522 17.3186 18.8907 17.3186H20.0333C20.2064 17.3186 20.3103 17.4571 20.3103 17.5956V18.7383Z" fill="#42ADE2"/>
<path d="M15.4627 16.5221C15.4627 16.6953 15.3242 16.7992 15.1857 16.7992H14.043C13.8699 16.7992 13.766 16.6607 13.766 16.5221V15.3795C13.766 15.2064 13.9045 15.1025 14.043 15.1025H15.1857C15.3588 15.1025 15.4627 15.241 15.4627 15.3795V16.5221Z" fill="#FF435E"/>
<path d="M17.8865 16.5221C17.8865 16.6953 17.748 16.7992 17.6095 16.7992H16.4668C16.2937 16.7992 16.1898 16.6607 16.1898 16.5221V15.3795C16.1898 15.2064 16.3283 15.1025 16.4668 15.1025H17.6095C17.7826 15.1025 17.8865 15.241 17.8865 15.3795V16.5221Z" fill="#F2B200"/>
<path d="M20.3103 16.5221C20.3103 16.6953 20.1718 16.7992 20.0333 16.7992H18.8907C18.7175 16.7992 18.6136 16.6607 18.6136 16.5221V15.3795C18.6136 15.2064 18.7522 15.1025 18.8907 15.1025H20.0333C20.2064 15.1025 20.3103 15.241 20.3103 15.3795V16.5221Z" fill="#C7E755"/>
<path d="M22.7342 16.5221C22.7342 16.6953 22.5956 16.7992 22.4571 16.7992H21.3145C21.1414 16.7992 21.0375 16.6607 21.0375 16.5221V15.3795C21.0375 15.2064 21.176 15.1025 21.3145 15.1025H22.4571C22.6303 15.1025 22.7342 15.241 22.7342 15.3795V16.5221Z" fill="#F2B200"/>
<path d="M15.4627 14.3061C15.4627 14.4792 15.3242 14.5831 15.1857 14.5831H14.043C13.8699 14.5831 13.766 14.4446 13.766 14.3061V13.1634C13.766 12.9903 13.9045 12.8864 14.043 12.8864H15.1857C15.3588 12.8864 15.4627 13.0249 15.4627 13.1634V14.3061Z" fill="#C28FEF"/>
<path d="M17.8865 14.3061C17.8865 14.4792 17.748 14.5831 17.6095 14.5831H16.4668C16.2937 14.5831 16.1898 14.4446 16.1898 14.3061V13.1634C16.1898 12.9903 16.3283 12.8864 16.4668 12.8864H17.6095C17.7826 12.8864 17.8865 13.0249 17.8865 13.1634V14.3061Z" fill="#42ADE2"/>
<path d="M20.3103 14.3061C20.3103 14.4792 20.1718 14.5831 20.0333 14.5831H18.8907C18.7175 14.5831 18.6136 14.4446 18.6136 14.3061V13.1634C18.6136 12.9903 18.7522 12.8864 18.8907 12.8864H20.0333C20.2064 12.8864 20.3103 13.0249 20.3103 13.1634V14.3061Z" fill="#FF435E"/>
<path d="M22.7342 14.3061C22.7342 14.4792 22.5956 14.5831 22.4571 14.5831H21.3145C21.1414 14.5831 21.0375 14.4446 21.0375 14.3061V13.1634C21.0375 12.9903 21.176 12.8864 21.3145 12.8864H22.4571C22.6303 12.8864 22.7342 13.0249 22.7342 13.1634V14.3061Z" fill="#C28FEF"/>
</svg>
