<svg width="36" height="36" viewBox="0 0 36 36" fill="none" xmlns="http://www.w3.org/2000/svg">
<rect width="36" height="36" rx="18" fill="#DA5757"/>
<path d="M9 15.5H28V25H9V15.5Z" fill="#CFD8DC"/>
<path d="M9 25H28V27H9V25Z" fill="#B0BEC5"/>
<path d="M20 18H26V27H20V18Z" fill="#455A64"/>
<path d="M11 18H18V23.5H11V18Z" fill="#E3F2FD"/>
<path d="M11.5 18.5H17.5V23H11.5V18.5Z" fill="#1E88E5"/>
<path d="M24.75 22.75C24.6 22.75 24.5 22.85 24.5 23V24C24.5 24.15 24.6 24.25 24.75 24.25C24.9 24.25 25 24.15 25 24V23C25 22.85 24.9 22.75 24.75 22.75Z" fill="#90A4AE"/>
<path d="M18.5 17C19.3284 17 20 16.3284 20 15.5C20 14.6716 19.3284 14 18.5 14C17.6716 14 17 14.6716 17 15.5C17 16.3284 17.6716 17 18.5 17Z" fill="#558B2F"/>
<path d="M24.5 17C25.3284 17 26 16.3284 26 15.5C26 14.6716 25.3284 14 24.5 14C23.6716 14 23 14.6716 23 15.5C23 16.3284 23.6716 17 24.5 17Z" fill="#558B2F"/>
<path d="M12.5 17C13.3284 17 14 16.3284 14 15.5C14 14.6716 13.3284 14 12.5 14C11.6716 14 11 14.6716 11 15.5C11 16.3284 11.6716 17 12.5 17Z" fill="#558B2F"/>
<path d="M26.5 9H10.5C9.95 9 9.5 9.45 9.5 10V11.5H27.5V10C27.5 9.45 27.05 9 26.5 9Z" fill="#7CB342"/>
<path d="M17 11.5H20V15.5H17V11.5Z" fill="#7CB342"/>
<path d="M25 11.5H22.5L23 15.5H26L25 11.5Z" fill="#7CB342"/>
<path d="M12 11.5H14.5L14 15.5H11L12 11.5Z" fill="#7CB342"/>
<path d="M21.5 17C22.3284 17 23 16.3284 23 15.5C23 14.6716 22.3284 14 21.5 14C20.6716 14 20 14.6716 20 15.5C20 16.3284 20.6716 17 21.5 17Z" fill="#FFA000"/>
<path d="M29 15.5C29 16.35 28.35 17 27.5 17C26.65 17 26 16.35 26 15.5C26 14.65 26.65 14 27.5 14L29 15.5Z" fill="#FFA000"/>
<path d="M15.5 17C16.3284 17 17 16.3284 17 15.5C17 14.6716 16.3284 14 15.5 14C14.6716 14 14 14.6716 14 15.5C14 16.3284 14.6716 17 15.5 17Z" fill="#FFA000"/>
<path d="M8 15.5C8 16.35 8.65 17 9.5 17C10.35 17 11 16.35 11 15.5C11 14.65 10.35 14 9.5 14L8 15.5Z" fill="#FFA000"/>
<path d="M22.5 11.5H20V15.5H23L22.5 11.5Z" fill="#FFC107"/>
<path d="M27.5 11.5H25L26 15.5H29L27.5 11.5Z" fill="#FFC107"/>
<path d="M14.5 11.5H17V15.5H14L14.5 11.5Z" fill="#FFC107"/>
<path d="M9.5 11.5H12L11 15.5H8L9.5 11.5Z" fill="#FFC107"/>
</svg>
