<svg width="263" height="157" viewBox="0 0 263 157" fill="none" xmlns="http://www.w3.org/2000/svg">
<path d="M19.4815 0H243.518C254.277 0 263 8.27033 263 18.4706V138.529C263 148.73 254.277 157 243.518 157H19.4815C8.72297 156.999 0 148.73 0 138.529V18.4706C0 8.27033 8.72297 0 19.4815 0Z" fill="#4398D1"/>
<path d="M243.518 0H239.622C193.646 77.3872 107.738 130.471 55.2932 156.999H243.518C254.277 156.999 263 148.729 263 138.529V18.4706C263 8.27033 254.277 0 243.518 0Z" fill="#3E8CC7"/>
<path d="M73.0554 23.0881H24.3518V60.0294H73.0554V23.0881Z" fill="#FDB62F"/>
<path d="M38.9631 36.9413H24.3518V46.1763H38.9631V36.9413Z" fill="#FD7B2F"/>
<path d="M73.0559 36.9413H58.4446V46.1763H73.0559V36.9413Z" fill="#FD7B2F"/>
<path d="M223.296 139.911C236.746 139.911 247.648 129.574 247.648 116.823C247.648 104.072 236.746 93.735 223.296 93.735C209.847 93.735 198.945 104.072 198.945 116.823C198.945 129.574 209.847 139.911 223.296 139.911Z" fill="#FDB62F"/>
<path d="M194.074 139.911C207.523 139.911 218.426 129.574 218.426 116.823C218.426 104.072 207.523 93.735 194.074 93.735C180.625 93.735 169.722 104.072 169.722 116.823C169.722 129.574 180.625 139.911 194.074 139.911Z" fill="#DE4C3C"/>
<path d="M22.8965 131.026C22.4993 131.446 22.0355 131.656 21.5049 131.656C20.8799 131.656 20.3818 131.438 20.0107 131.002C19.6396 130.562 19.4541 129.986 19.4541 129.273C19.4541 128.805 19.5485 128.38 19.7373 127.999C19.9261 127.618 20.1947 127.322 20.543 127.11C20.8913 126.899 21.2949 126.793 21.7539 126.793C22.4701 126.793 23.0381 127.06 23.458 127.594C23.8779 128.128 24.0879 128.842 24.0879 129.737V130.069C24.0879 131.352 23.7982 132.33 23.2188 133.004C22.6393 133.678 21.7751 134.02 20.626 134.029H20.4844V133.048H20.6553C21.3551 133.038 21.8923 132.87 22.2666 132.545C22.641 132.216 22.8509 131.71 22.8965 131.026ZM21.7539 130.729C21.9915 130.729 22.2145 130.66 22.4229 130.523C22.6312 130.387 22.7923 130.198 22.9062 129.957V129.493C22.9062 128.969 22.7988 128.548 22.584 128.229C22.3691 127.91 22.0908 127.75 21.749 127.75C21.4072 127.75 21.1338 127.892 20.9287 128.175C20.7269 128.455 20.626 128.81 20.626 129.239C20.626 129.685 20.7285 130.045 20.9336 130.318C21.1387 130.592 21.4121 130.729 21.7539 130.729ZM28.5801 131.026C28.1829 131.446 27.7191 131.656 27.1885 131.656C26.5635 131.656 26.0654 131.438 25.6943 131.002C25.3232 130.562 25.1377 129.986 25.1377 129.273C25.1377 128.805 25.2321 128.38 25.4209 127.999C25.6097 127.618 25.8783 127.322 26.2266 127.11C26.5749 126.899 26.9785 126.793 27.4375 126.793C28.1536 126.793 28.7217 127.06 29.1416 127.594C29.5615 128.128 29.7715 128.842 29.7715 129.737V130.069C29.7715 131.352 29.4818 132.33 28.9023 133.004C28.3229 133.678 27.4587 134.02 26.3096 134.029H26.168V133.048H26.3389C27.0387 133.038 27.5758 132.87 27.9502 132.545C28.3245 132.216 28.5345 131.71 28.5801 131.026ZM27.4375 130.729C27.6751 130.729 27.8981 130.66 28.1064 130.523C28.3148 130.387 28.4759 130.198 28.5898 129.957V129.493C28.5898 128.969 28.4824 128.548 28.2676 128.229C28.0527 127.91 27.7744 127.75 27.4326 127.75C27.0908 127.75 26.8174 127.892 26.6123 128.175C26.4105 128.455 26.3096 128.81 26.3096 129.239C26.3096 129.685 26.4121 130.045 26.6172 130.318C26.8223 130.592 27.0957 130.729 27.4375 130.729ZM35.6309 127.55L32.7891 134H31.5439L34.3809 127.843H30.7041V126.891H35.6309V127.55ZM41.0605 128.766C41.0605 129.114 40.971 129.425 40.792 129.698C40.613 129.968 40.3688 130.182 40.0596 130.338C40.4307 130.51 40.7155 130.746 40.9141 131.046C41.1159 131.345 41.2168 131.684 41.2168 132.062C41.2168 132.687 41.0052 133.183 40.582 133.551C40.1589 133.915 39.5957 134.098 38.8926 134.098C38.1862 134.098 37.6198 133.914 37.1934 133.546C36.7702 133.178 36.5586 132.683 36.5586 132.062C36.5586 131.681 36.6595 131.339 36.8613 131.036C37.0632 130.733 37.3464 130.501 37.7109 130.338C37.4049 130.182 37.1624 129.968 36.9834 129.698C36.8076 129.425 36.7197 129.114 36.7197 128.766C36.7197 128.16 36.915 127.68 37.3057 127.325C37.6963 126.97 38.2236 126.793 38.8877 126.793C39.555 126.793 40.084 126.97 40.4746 127.325C40.8652 127.68 41.0605 128.16 41.0605 128.766ZM40.0303 132.003C40.0303 131.651 39.9245 131.368 39.7129 131.153C39.5046 130.935 39.2279 130.826 38.8828 130.826C38.5378 130.826 38.2611 130.934 38.0527 131.148C37.8477 131.363 37.7451 131.648 37.7451 132.003C37.7451 132.351 37.846 132.63 38.0479 132.838C38.2529 133.046 38.5345 133.15 38.8926 133.15C39.2507 133.15 39.529 133.049 39.7275 132.848C39.9294 132.646 40.0303 132.364 40.0303 132.003ZM39.8789 128.81C39.8789 128.5 39.7894 128.246 39.6104 128.048C39.4313 127.846 39.1904 127.745 38.8877 127.745C38.585 127.745 38.3457 127.841 38.1699 128.033C37.9941 128.222 37.9062 128.481 37.9062 128.81C37.9062 129.135 37.9941 129.394 38.1699 129.586C38.349 129.778 38.5898 129.874 38.8926 129.874C39.1953 129.874 39.4346 129.778 39.6104 129.586C39.7894 129.394 39.8789 129.135 39.8789 128.81ZM49.2344 128.766C49.2344 129.114 49.1449 129.425 48.9658 129.698C48.7868 129.968 48.5426 130.182 48.2334 130.338C48.6045 130.51 48.8893 130.746 49.0879 131.046C49.2897 131.345 49.3906 131.684 49.3906 132.062C49.3906 132.687 49.179 133.183 48.7559 133.551C48.3327 133.915 47.7695 134.098 47.0664 134.098C46.36 134.098 45.7936 133.914 45.3672 133.546C44.944 133.178 44.7324 132.683 44.7324 132.062C44.7324 131.681 44.8333 131.339 45.0352 131.036C45.237 130.733 45.5202 130.501 45.8848 130.338C45.5788 130.182 45.3363 129.968 45.1572 129.698C44.9814 129.425 44.8936 129.114 44.8936 128.766C44.8936 128.16 45.0889 127.68 45.4795 127.325C45.8701 126.97 46.3975 126.793 47.0615 126.793C47.7288 126.793 48.2578 126.97 48.6484 127.325C49.0391 127.68 49.2344 128.16 49.2344 128.766ZM48.2041 132.003C48.2041 131.651 48.0983 131.368 47.8867 131.153C47.6784 130.935 47.4017 130.826 47.0566 130.826C46.7116 130.826 46.4349 130.934 46.2266 131.148C46.0215 131.363 45.9189 131.648 45.9189 132.003C45.9189 132.351 46.0199 132.63 46.2217 132.838C46.4268 133.046 46.7083 133.15 47.0664 133.15C47.4245 133.15 47.7028 133.049 47.9014 132.848C48.1032 132.646 48.2041 132.364 48.2041 132.003ZM48.0527 128.81C48.0527 128.5 47.9632 128.246 47.7842 128.048C47.6051 127.846 47.3643 127.745 47.0615 127.745C46.7588 127.745 46.5195 127.841 46.3438 128.033C46.168 128.222 46.0801 128.481 46.0801 128.81C46.0801 129.135 46.168 129.394 46.3438 129.586C46.5228 129.778 46.7637 129.874 47.0664 129.874C47.3691 129.874 47.6084 129.778 47.7842 129.586C47.9632 129.394 48.0527 129.135 48.0527 128.81ZM55.2207 134H50.4404V133.185L52.8086 130.602C53.1504 130.221 53.3929 129.903 53.5361 129.649C53.6826 129.392 53.7559 129.135 53.7559 128.878C53.7559 128.539 53.6598 128.266 53.4678 128.058C53.279 127.849 53.0234 127.745 52.7012 127.745C52.3171 127.745 52.0192 127.862 51.8076 128.097C51.596 128.331 51.4902 128.652 51.4902 129.059H50.3037C50.3037 128.626 50.4014 128.237 50.5967 127.892C50.7952 127.543 51.0768 127.273 51.4414 127.081C51.8092 126.889 52.2324 126.793 52.7109 126.793C53.401 126.793 53.9447 126.967 54.3418 127.315C54.7422 127.66 54.9424 128.139 54.9424 128.751C54.9424 129.106 54.8415 129.479 54.6396 129.869C54.4411 130.257 54.1139 130.698 53.6582 131.192L51.9199 133.053H55.2207V134ZM60.6016 128.766C60.6016 129.114 60.512 129.425 60.333 129.698C60.154 129.968 59.9098 130.182 59.6006 130.338C59.9717 130.51 60.2565 130.746 60.4551 131.046C60.6569 131.345 60.7578 131.684 60.7578 132.062C60.7578 132.687 60.5462 133.183 60.123 133.551C59.6999 133.915 59.1367 134.098 58.4336 134.098C57.7272 134.098 57.1608 133.914 56.7344 133.546C56.3112 133.178 56.0996 132.683 56.0996 132.062C56.0996 131.681 56.2005 131.339 56.4023 131.036C56.6042 130.733 56.8874 130.501 57.252 130.338C56.946 130.182 56.7035 129.968 56.5244 129.698C56.3486 129.425 56.2607 129.114 56.2607 128.766C56.2607 128.16 56.4561 127.68 56.8467 127.325C57.2373 126.97 57.7646 126.793 58.4287 126.793C59.096 126.793 59.625 126.97 60.0156 127.325C60.4062 127.68 60.6016 128.16 60.6016 128.766ZM59.5713 132.003C59.5713 131.651 59.4655 131.368 59.2539 131.153C59.0456 130.935 58.7689 130.826 58.4238 130.826C58.0788 130.826 57.8021 130.934 57.5938 131.148C57.3887 131.363 57.2861 131.648 57.2861 132.003C57.2861 132.351 57.387 132.63 57.5889 132.838C57.7939 133.046 58.0755 133.15 58.4336 133.15C58.7917 133.15 59.07 133.049 59.2686 132.848C59.4704 132.646 59.5713 132.364 59.5713 132.003ZM59.4199 128.81C59.4199 128.5 59.3304 128.246 59.1514 128.048C58.9723 127.846 58.7314 127.745 58.4287 127.745C58.126 127.745 57.8867 127.841 57.7109 128.033C57.5352 128.222 57.4473 128.481 57.4473 128.81C57.4473 129.135 57.5352 129.394 57.7109 129.586C57.89 129.778 58.1309 129.874 58.4336 129.874C58.7363 129.874 58.9756 129.778 59.1514 129.586C59.3304 129.394 59.4199 129.135 59.4199 128.81ZM66.2852 128.766C66.2852 129.114 66.1956 129.425 66.0166 129.698C65.8376 129.968 65.5934 130.182 65.2842 130.338C65.6553 130.51 65.9401 130.746 66.1387 131.046C66.3405 131.345 66.4414 131.684 66.4414 132.062C66.4414 132.687 66.2298 133.183 65.8066 133.551C65.3835 133.915 64.8203 134.098 64.1172 134.098C63.4108 134.098 62.8444 133.914 62.418 133.546C61.9948 133.178 61.7832 132.683 61.7832 132.062C61.7832 131.681 61.8841 131.339 62.0859 131.036C62.2878 130.733 62.571 130.501 62.9355 130.338C62.6296 130.182 62.387 129.968 62.208 129.698C62.0322 129.425 61.9443 129.114 61.9443 128.766C61.9443 128.16 62.1396 127.68 62.5303 127.325C62.9209 126.97 63.4482 126.793 64.1123 126.793C64.7796 126.793 65.3086 126.97 65.6992 127.325C66.0898 127.68 66.2852 128.16 66.2852 128.766ZM65.2549 132.003C65.2549 131.651 65.1491 131.368 64.9375 131.153C64.7292 130.935 64.4525 130.826 64.1074 130.826C63.7624 130.826 63.4857 130.934 63.2773 131.148C63.0723 131.363 62.9697 131.648 62.9697 132.003C62.9697 132.351 63.0706 132.63 63.2725 132.838C63.4775 133.046 63.7591 133.15 64.1172 133.15C64.4753 133.15 64.7536 133.049 64.9521 132.848C65.154 132.646 65.2549 132.364 65.2549 132.003ZM65.1035 128.81C65.1035 128.5 65.014 128.246 64.835 128.048C64.6559 127.846 64.415 127.745 64.1123 127.745C63.8096 127.745 63.5703 127.841 63.3945 128.033C63.2188 128.222 63.1309 128.481 63.1309 128.81C63.1309 129.135 63.2188 129.394 63.3945 129.586C63.5736 129.778 63.8145 129.874 64.1172 129.874C64.4199 129.874 64.6592 129.778 64.835 129.586C65.014 129.394 65.1035 129.135 65.1035 128.81ZM74.7617 134H69.9814V133.185L72.3496 130.602C72.6914 130.221 72.9339 129.903 73.0771 129.649C73.2236 129.392 73.2969 129.135 73.2969 128.878C73.2969 128.539 73.2008 128.266 73.0088 128.058C72.82 127.849 72.5645 127.745 72.2422 127.745C71.8581 127.745 71.5602 127.862 71.3486 128.097C71.137 128.331 71.0312 128.652 71.0312 129.059H69.8447C69.8447 128.626 69.9424 128.237 70.1377 127.892C70.3363 127.543 70.6178 127.273 70.9824 127.081C71.3503 126.889 71.7734 126.793 72.252 126.793C72.9421 126.793 73.4857 126.967 73.8828 127.315C74.2832 127.66 74.4834 128.139 74.4834 128.751C74.4834 129.106 74.3825 129.479 74.1807 129.869C73.9821 130.257 73.6549 130.698 73.1992 131.192L71.4609 133.053H74.7617V134ZM80.1426 128.766C80.1426 129.114 80.0531 129.425 79.874 129.698C79.695 129.968 79.4508 130.182 79.1416 130.338C79.5127 130.51 79.7975 130.746 79.9961 131.046C80.1979 131.345 80.2988 131.684 80.2988 132.062C80.2988 132.687 80.0872 133.183 79.6641 133.551C79.2409 133.915 78.6777 134.098 77.9746 134.098C77.2682 134.098 76.7018 133.914 76.2754 133.546C75.8522 133.178 75.6406 132.683 75.6406 132.062C75.6406 131.681 75.7415 131.339 75.9434 131.036C76.1452 130.733 76.4284 130.501 76.793 130.338C76.487 130.182 76.2445 129.968 76.0654 129.698C75.8896 129.425 75.8018 129.114 75.8018 128.766C75.8018 128.16 75.9971 127.68 76.3877 127.325C76.7783 126.97 77.3057 126.793 77.9697 126.793C78.637 126.793 79.166 126.97 79.5566 127.325C79.9473 127.68 80.1426 128.16 80.1426 128.766ZM79.1123 132.003C79.1123 131.651 79.0065 131.368 78.7949 131.153C78.5866 130.935 78.3099 130.826 77.9648 130.826C77.6198 130.826 77.3431 130.934 77.1348 131.148C76.9297 131.363 76.8271 131.648 76.8271 132.003C76.8271 132.351 76.9281 132.63 77.1299 132.838C77.335 133.046 77.6165 133.15 77.9746 133.15C78.3327 133.15 78.611 133.049 78.8096 132.848C79.0114 132.646 79.1123 132.364 79.1123 132.003ZM78.9609 128.81C78.9609 128.5 78.8714 128.246 78.6924 128.048C78.5133 127.846 78.2725 127.745 77.9697 127.745C77.667 127.745 77.4277 127.841 77.252 128.033C77.0762 128.222 76.9883 128.481 76.9883 128.81C76.9883 129.135 77.0762 129.394 77.252 129.586C77.431 129.778 77.6719 129.874 77.9746 129.874C78.2773 129.874 78.5166 129.778 78.6924 129.586C78.8714 129.394 78.9609 129.135 78.9609 128.81ZM86.0801 127.55L83.2383 134H81.9932L84.8301 127.843H81.1533V126.891H86.0801V127.55ZM91.0459 131.466H91.9297V132.418H91.0459V134H89.8594V132.418H86.7881L86.7539 131.695L89.8203 126.891H91.0459V131.466ZM87.999 131.466H89.8594V128.497L89.7715 128.653L87.999 131.466ZM99.9863 134H95.2061V133.185L97.5742 130.602C97.916 130.221 98.1585 129.903 98.3018 129.649C98.4482 129.392 98.5215 129.135 98.5215 128.878C98.5215 128.539 98.4255 128.266 98.2334 128.058C98.0446 127.849 97.7891 127.745 97.4668 127.745C97.0827 127.745 96.7848 127.862 96.5732 128.097C96.3617 128.331 96.2559 128.652 96.2559 129.059H95.0693C95.0693 128.626 95.167 128.237 95.3623 127.892C95.5609 127.543 95.8424 127.273 96.207 127.081C96.5749 126.889 96.998 126.793 97.4766 126.793C98.1667 126.793 98.7103 126.967 99.1074 127.315C99.5078 127.66 99.708 128.139 99.708 128.751C99.708 129.106 99.6071 129.479 99.4053 129.869C99.2067 130.257 98.8796 130.698 98.4238 131.192L96.6855 133.053H99.9863V134ZM105.367 128.766C105.367 129.114 105.278 129.425 105.099 129.698C104.92 129.968 104.675 130.182 104.366 130.338C104.737 130.51 105.022 130.746 105.221 131.046C105.423 131.345 105.523 131.684 105.523 132.062C105.523 132.687 105.312 133.183 104.889 133.551C104.465 133.915 103.902 134.098 103.199 134.098C102.493 134.098 101.926 133.914 101.5 133.546C101.077 133.178 100.865 132.683 100.865 132.062C100.865 131.681 100.966 131.339 101.168 131.036C101.37 130.733 101.653 130.501 102.018 130.338C101.712 130.182 101.469 129.968 101.29 129.698C101.114 129.425 101.026 129.114 101.026 128.766C101.026 128.16 101.222 127.68 101.612 127.325C102.003 126.97 102.53 126.793 103.194 126.793C103.862 126.793 104.391 126.97 104.781 127.325C105.172 127.68 105.367 128.16 105.367 128.766ZM104.337 132.003C104.337 131.651 104.231 131.368 104.02 131.153C103.811 130.935 103.535 130.826 103.189 130.826C102.844 130.826 102.568 130.934 102.359 131.148C102.154 131.363 102.052 131.648 102.052 132.003C102.052 132.351 102.153 132.63 102.354 132.838C102.56 133.046 102.841 133.15 103.199 133.15C103.557 133.15 103.836 133.049 104.034 132.848C104.236 132.646 104.337 132.364 104.337 132.003ZM104.186 128.81C104.186 128.5 104.096 128.246 103.917 128.048C103.738 127.846 103.497 127.745 103.194 127.745C102.892 127.745 102.652 127.841 102.477 128.033C102.301 128.222 102.213 128.481 102.213 128.81C102.213 129.135 102.301 129.394 102.477 129.586C102.656 129.778 102.896 129.874 103.199 129.874C103.502 129.874 103.741 129.778 103.917 129.586C104.096 129.394 104.186 129.135 104.186 128.81ZM111.305 127.55L108.463 134H107.218L110.055 127.843H106.378V126.891H111.305V127.55ZM116.271 131.466H117.154V132.418H116.271V134H115.084V132.418H112.013L111.979 131.695L115.045 126.891H116.271V131.466ZM113.224 131.466H115.084V128.497L114.996 128.653L113.224 131.466Z" fill="#FCFCFC"/>
<path d="M21.3242 109.891L23.375 115.34L25.4209 109.891H27.0176V117H25.7871V114.656L25.9092 111.521L23.8096 117H22.9258L20.8311 111.526L20.9531 114.656V117H19.7227V109.891H21.3242ZM33.6826 109.891V114.642C33.6826 115.397 33.4401 115.996 32.9551 116.438C32.4733 116.878 31.8304 117.098 31.0264 117.098C30.2126 117.098 29.5664 116.881 29.0879 116.448C28.6094 116.012 28.3701 115.408 28.3701 114.637V109.891H29.6006V114.646C29.6006 115.122 29.721 115.485 29.9619 115.735C30.2028 115.986 30.5576 116.111 31.0264 116.111C31.9769 116.111 32.4521 115.61 32.4521 114.607V109.891H33.6826ZM40.6504 117H39.4199V113.841H36.2412V117H35.0059V109.891H36.2412V112.85H39.4199V109.891H40.6504V117ZM46.1826 115.345H43.4287L42.8525 117H41.5684L44.2539 109.891H45.3623L48.0527 117H46.7637L46.1826 115.345ZM43.7754 114.349H45.8359L44.8057 111.399L43.7754 114.349ZM50.4648 109.891L52.5156 115.34L54.5615 109.891H56.1582V117H54.9277V114.656L55.0498 111.521L52.9502 117H52.0664L49.9717 111.526L50.0938 114.656V117H48.8633V109.891H50.4648ZM61.6904 115.345H58.9365L58.3604 117H57.0762L59.7617 109.891H60.8701L63.5605 117H62.2715L61.6904 115.345ZM59.2832 114.349H61.3438L60.3135 111.399L59.2832 114.349ZM64.3711 117V109.891H66.4707C67.099 109.891 67.6556 110.031 68.1406 110.311C68.6289 110.59 69.0065 110.988 69.2734 111.502C69.5404 112.016 69.6738 112.605 69.6738 113.27V113.626C69.6738 114.3 69.5387 114.892 69.2686 115.403C69.0016 115.914 68.6191 116.308 68.1211 116.585C67.6263 116.862 67.0583 117 66.417 117H64.3711ZM65.6064 110.887V116.014H66.4121C67.0599 116.014 67.5563 115.812 67.9014 115.408C68.2497 115.001 68.4271 114.419 68.4336 113.66V113.265C68.4336 112.493 68.266 111.904 67.9307 111.497C67.5954 111.09 67.1087 110.887 66.4707 110.887H65.6064ZM76.0068 114.261H74.6299V117H73.3945V109.891H75.8945C76.7148 109.891 77.348 110.075 77.7939 110.442C78.2399 110.81 78.4629 111.342 78.4629 112.039C78.4629 112.514 78.3473 112.913 78.1162 113.235C77.8883 113.554 77.5693 113.8 77.1592 113.973L78.7559 116.937V117H77.4326L76.0068 114.261ZM74.6299 113.27H75.8994C76.3161 113.27 76.6416 113.165 76.876 112.957C77.1104 112.745 77.2275 112.457 77.2275 112.093C77.2275 111.712 77.1185 111.417 76.9004 111.209C76.6855 111.001 76.3633 110.893 75.9336 110.887H74.6299V113.27ZM85.3086 113.631C85.3086 114.327 85.1882 114.939 84.9473 115.467C84.7064 115.991 84.3613 116.395 83.9121 116.678C83.4661 116.958 82.9518 117.098 82.3691 117.098C81.793 117.098 81.2786 116.958 80.8262 116.678C80.377 116.395 80.0286 115.993 79.7812 115.472C79.5371 114.951 79.4134 114.35 79.4102 113.67V113.27C79.4102 112.576 79.5322 111.964 79.7764 111.434C80.0238 110.903 80.3704 110.498 80.8164 110.218C81.2656 109.935 81.7799 109.793 82.3594 109.793C82.9388 109.793 83.4515 109.933 83.8975 110.213C84.3467 110.49 84.6934 110.89 84.9375 111.414C85.1816 111.935 85.3053 112.542 85.3086 113.235V113.631ZM84.0732 113.26C84.0732 112.472 83.9235 111.868 83.624 111.448C83.3278 111.028 82.9062 110.818 82.3594 110.818C81.8255 110.818 81.4072 111.028 81.1045 111.448C80.805 111.865 80.652 112.456 80.6455 113.221V113.631C80.6455 114.412 80.7969 115.016 81.0996 115.442C81.4056 115.869 81.8288 116.082 82.3691 116.082C82.916 116.082 83.3359 115.874 83.6289 115.457C83.9251 115.04 84.0732 114.432 84.0732 113.631V113.26ZM88.1406 109.891L90.1914 115.34L92.2373 109.891H93.834V117H92.6035V114.656L92.7256 111.521L90.626 117H89.7422L87.6475 111.526L87.7695 114.656V117H86.5391V109.891H88.1406ZM95.2988 117V109.891H97.3984C98.0267 109.891 98.5833 110.031 99.0684 110.311C99.5566 110.59 99.9342 110.988 100.201 111.502C100.468 112.016 100.602 112.605 100.602 113.27V113.626C100.602 114.3 100.466 114.892 100.196 115.403C99.9294 115.914 99.5469 116.308 99.0488 116.585C98.554 116.862 97.986 117 97.3447 117H95.2988ZM96.5342 110.887V116.014H97.3398C97.9876 116.014 98.484 115.812 98.8291 115.408C99.1774 115.001 99.3548 114.419 99.3613 113.66V113.265C99.3613 112.493 99.1937 111.904 98.8584 111.497C98.5231 111.09 98.0365 110.887 97.3984 110.887H96.5342ZM107.506 113.631C107.506 114.327 107.385 114.939 107.145 115.467C106.904 115.991 106.559 116.395 106.109 116.678C105.663 116.958 105.149 117.098 104.566 117.098C103.99 117.098 103.476 116.958 103.023 116.678C102.574 116.395 102.226 115.993 101.979 115.472C101.734 114.951 101.611 114.35 101.607 113.67V113.27C101.607 112.576 101.729 111.964 101.974 111.434C102.221 110.903 102.568 110.498 103.014 110.218C103.463 109.935 103.977 109.793 104.557 109.793C105.136 109.793 105.649 109.933 106.095 110.213C106.544 110.49 106.891 110.89 107.135 111.414C107.379 111.935 107.503 112.542 107.506 113.235V113.631ZM106.271 113.26C106.271 112.472 106.121 111.868 105.821 111.448C105.525 111.028 105.104 110.818 104.557 110.818C104.023 110.818 103.604 111.028 103.302 111.448C103.002 111.865 102.849 112.456 102.843 113.221V113.631C102.843 114.412 102.994 115.016 103.297 115.442C103.603 115.869 104.026 116.082 104.566 116.082C105.113 116.082 105.533 115.874 105.826 115.457C106.122 115.04 106.271 114.432 106.271 113.631V113.26ZM114.376 117H113.141L109.972 111.956V117H108.736V109.891H109.972L113.15 114.954V109.891H114.376V117Z" fill="#FCFCFC"/>
<path d="M196.324 31.8906L198.375 37.3398L200.421 31.8906H202.018V39H200.787V36.6562L200.909 33.5215L198.81 39H197.926L195.831 33.5264L195.953 36.6562V39H194.723V31.8906H196.324ZM206.524 39C206.472 38.8991 206.427 38.7347 206.388 38.5068C206.01 38.9007 205.548 39.0977 205.001 39.0977C204.47 39.0977 204.037 38.9463 203.702 38.6436C203.367 38.3408 203.199 37.9665 203.199 37.5205C203.199 36.9574 203.408 36.526 203.824 36.2266C204.244 35.9238 204.843 35.7725 205.621 35.7725H206.349V35.4258C206.349 35.1523 206.272 34.9342 206.119 34.7715C205.966 34.6055 205.733 34.5225 205.421 34.5225C205.151 34.5225 204.929 34.5908 204.757 34.7275C204.584 34.861 204.498 35.0319 204.498 35.2402H203.312C203.312 34.9505 203.408 34.6803 203.6 34.4297C203.792 34.1758 204.052 33.9772 204.381 33.834C204.713 33.6908 205.082 33.6191 205.489 33.6191C206.108 33.6191 206.601 33.7754 206.969 34.0879C207.337 34.3971 207.525 34.8333 207.535 35.3965V37.7793C207.535 38.2546 207.602 38.6338 207.735 38.917V39H206.524ZM205.221 38.1455C205.455 38.1455 205.675 38.0885 205.88 37.9746C206.088 37.8607 206.244 37.7077 206.349 37.5156V36.5195H205.709C205.27 36.5195 204.939 36.596 204.718 36.749C204.496 36.902 204.386 37.1185 204.386 37.3984C204.386 37.6263 204.461 37.8086 204.61 37.9453C204.763 38.0788 204.967 38.1455 205.221 38.1455ZM211.739 37.5645C211.739 37.3529 211.651 37.1917 211.476 37.0811C211.303 36.9704 211.015 36.8727 210.611 36.7881C210.208 36.7035 209.871 36.596 209.601 36.4658C209.008 36.1794 208.712 35.7643 208.712 35.2207C208.712 34.765 208.904 34.3841 209.288 34.0781C209.672 33.7721 210.16 33.6191 210.753 33.6191C211.384 33.6191 211.894 33.7754 212.281 34.0879C212.672 34.4004 212.867 34.8057 212.867 35.3037H211.681C211.681 35.0758 211.596 34.887 211.427 34.7373C211.257 34.5843 211.033 34.5078 210.753 34.5078C210.493 34.5078 210.279 34.568 210.113 34.6885C209.951 34.8089 209.869 34.9701 209.869 35.1719C209.869 35.3542 209.946 35.4958 210.099 35.5967C210.252 35.6976 210.561 35.8001 211.026 35.9043C211.492 36.0052 211.856 36.1273 212.12 36.2705C212.387 36.4105 212.584 36.5798 212.711 36.7783C212.841 36.9769 212.906 37.2178 212.906 37.501C212.906 37.9762 212.709 38.362 212.315 38.6582C211.922 38.9512 211.406 39.0977 210.768 39.0977C210.335 39.0977 209.949 39.0195 209.61 38.8633C209.272 38.707 209.008 38.4922 208.819 38.2188C208.631 37.9453 208.536 37.6507 208.536 37.335H209.688C209.705 37.6149 209.811 37.8314 210.006 37.9844C210.201 38.1341 210.46 38.209 210.782 38.209C211.095 38.209 211.332 38.1504 211.495 38.0332C211.658 37.9128 211.739 37.7565 211.739 37.5645ZM215.431 32.4326V33.7168H216.363V34.5957H215.431V37.5449C215.431 37.7467 215.47 37.8932 215.548 37.9844C215.629 38.0723 215.772 38.1162 215.978 38.1162C216.114 38.1162 216.253 38.0999 216.393 38.0674V38.9854C216.122 39.0602 215.862 39.0977 215.611 39.0977C214.7 39.0977 214.244 38.5947 214.244 37.5889V34.5957H213.375V33.7168H214.244V32.4326H215.431ZM219.601 39.0977C218.849 39.0977 218.238 38.8617 217.77 38.3896C217.304 37.9144 217.071 37.2829 217.071 36.4951V36.3486C217.071 35.8213 217.172 35.3509 217.374 34.9375C217.579 34.5208 217.866 34.1969 218.233 33.9658C218.601 33.7347 219.011 33.6191 219.464 33.6191C220.183 33.6191 220.738 33.8486 221.129 34.3076C221.523 34.7666 221.72 35.416 221.72 36.2559V36.7344H218.268C218.303 37.1706 218.448 37.5156 218.702 37.7695C218.959 38.0234 219.282 38.1504 219.669 38.1504C220.213 38.1504 220.655 37.9307 220.997 37.4912L221.637 38.1016C221.425 38.4173 221.142 38.6631 220.787 38.8389C220.436 39.0114 220.04 39.0977 219.601 39.0977ZM219.459 34.5713C219.133 34.5713 218.87 34.6852 218.668 34.9131C218.469 35.141 218.342 35.4583 218.287 35.8652H220.548V35.7773C220.522 35.3802 220.416 35.0807 220.23 34.8789C220.045 34.6738 219.788 34.5713 219.459 34.5713ZM225.411 34.8008C225.255 34.7747 225.094 34.7617 224.928 34.7617C224.384 34.7617 224.018 34.9701 223.829 35.3867V39H222.643V33.7168H223.775L223.805 34.3076C224.091 33.8486 224.488 33.6191 224.996 33.6191C225.165 33.6191 225.305 33.6419 225.416 33.6875L225.411 34.8008ZM234.19 36.6855C234.119 37.444 233.839 38.0365 233.351 38.4629C232.862 38.8861 232.213 39.0977 231.402 39.0977C230.836 39.0977 230.336 38.9642 229.903 38.6973C229.474 38.4271 229.142 38.0446 228.907 37.5498C228.673 37.055 228.551 36.4805 228.541 35.8262V35.1621C228.541 34.4915 228.66 33.9007 228.897 33.3896C229.135 32.8786 229.475 32.4847 229.918 32.208C230.364 31.9313 230.878 31.793 231.461 31.793C232.245 31.793 232.877 32.0062 233.355 32.4326C233.834 32.859 234.112 33.4613 234.19 34.2393H232.96C232.901 33.7282 232.752 33.3604 232.511 33.1357C232.273 32.9079 231.923 32.7939 231.461 32.7939C230.924 32.7939 230.51 32.9909 230.221 33.3848C229.934 33.7754 229.788 34.3499 229.781 35.1084V35.7383C229.781 36.5065 229.918 37.0924 230.191 37.4961C230.468 37.8997 230.872 38.1016 231.402 38.1016C231.887 38.1016 232.252 37.9925 232.496 37.7744C232.74 37.5563 232.895 37.1934 232.96 36.6855H234.19ZM238.341 39C238.289 38.8991 238.243 38.7347 238.204 38.5068C237.826 38.9007 237.364 39.0977 236.817 39.0977C236.287 39.0977 235.854 38.9463 235.519 38.6436C235.183 38.3408 235.016 37.9665 235.016 37.5205C235.016 36.9574 235.224 36.526 235.641 36.2266C236.061 35.9238 236.66 35.7725 237.438 35.7725H238.165V35.4258C238.165 35.1523 238.089 34.9342 237.936 34.7715C237.783 34.6055 237.55 34.5225 237.237 34.5225C236.967 34.5225 236.746 34.5908 236.573 34.7275C236.401 34.861 236.314 35.0319 236.314 35.2402H235.128C235.128 34.9505 235.224 34.6803 235.416 34.4297C235.608 34.1758 235.868 33.9772 236.197 33.834C236.529 33.6908 236.899 33.6191 237.306 33.6191C237.924 33.6191 238.417 33.7754 238.785 34.0879C239.153 34.3971 239.342 34.8333 239.352 35.3965V37.7793C239.352 38.2546 239.418 38.6338 239.552 38.917V39H238.341ZM237.037 38.1455C237.271 38.1455 237.491 38.0885 237.696 37.9746C237.905 37.8607 238.061 37.7077 238.165 37.5156V36.5195H237.525C237.086 36.5195 236.756 36.596 236.534 36.749C236.313 36.902 236.202 37.1185 236.202 37.3984C236.202 37.6263 236.277 37.8086 236.427 37.9453C236.58 38.0788 236.783 38.1455 237.037 38.1455ZM243.36 34.8008C243.204 34.7747 243.043 34.7617 242.877 34.7617C242.333 34.7617 241.967 34.9701 241.778 35.3867V39H240.592V33.7168H241.725L241.754 34.3076C242.04 33.8486 242.438 33.6191 242.945 33.6191C243.115 33.6191 243.255 33.6419 243.365 33.6875L243.36 34.8008ZM243.79 36.3193C243.79 35.5055 243.979 34.8529 244.356 34.3613C244.734 33.8665 245.24 33.6191 245.875 33.6191C246.435 33.6191 246.887 33.8145 247.232 34.2051V31.5H248.419V39H247.345L247.286 38.4531C246.931 38.8828 246.458 39.0977 245.865 39.0977C245.247 39.0977 244.745 38.8486 244.361 38.3506C243.98 37.8525 243.79 37.1755 243.79 36.3193ZM244.977 36.4219C244.977 36.959 245.079 37.3789 245.284 37.6816C245.493 37.9811 245.787 38.1309 246.168 38.1309C246.653 38.1309 247.008 37.9144 247.232 37.4814V35.2256C247.014 34.8024 246.663 34.5908 246.178 34.5908C245.794 34.5908 245.497 34.7438 245.289 35.0498C245.081 35.3525 244.977 35.8099 244.977 36.4219Z" fill="#FCFCFC"/>
<rect width="263" height="157" rx="20" fill="#C4C4C4" fill-opacity="0.4"/>
</svg>
