<svg width="69" height="69" viewBox="0 0 69 69" fill="none" xmlns="http://www.w3.org/2000/svg">
<rect width="69" height="69" rx="20" fill="black" fill-opacity="0.2"/>
<path d="M35 25C32.243 25 30 27.243 30 30V33H29C28.4696 33 27.9609 33.2107 27.5858 33.5858C27.2107 33.9609 27 34.4696 27 35V43C27 43.5304 27.2107 44.0391 27.5858 44.4142C27.9609 44.7893 28.4696 45 29 45H41C41.5304 45 42.0391 44.7893 42.4142 44.4142C42.7893 44.0391 43 43.5304 43 43V35C43 34.4696 42.7893 33.9609 42.4142 33.5858C42.0391 33.2107 41.5304 33 41 33H40V30C40 27.243 37.757 25 35 25ZM32 30C32 28.346 33.346 27 35 27C36.654 27 38 28.346 38 30V33H32V30ZM36 40.723V43H34V40.723C33.6504 40.5228 33.3697 40.2213 33.1948 39.8584C33.02 39.4954 32.9593 39.0879 33.0207 38.6898C33.0821 38.2916 33.2627 37.9214 33.5388 37.6279C33.8148 37.3345 34.1733 37.1316 34.567 37.046C34.8594 36.9813 35.1626 36.9832 35.4542 37.0513C35.7459 37.1194 36.0185 37.2521 36.252 37.4397C36.4855 37.6272 36.6739 37.8647 36.8034 38.1348C36.9328 38.4049 37 38.7005 37 39C36.9994 39.3497 36.9067 39.6932 36.7311 39.9956C36.5556 40.2981 36.3034 40.549 36 40.723Z" fill="#FCFCFC"/>
</svg>
